<svg width="64" height="69" viewBox="0 0 64 69" fill="none" xmlns="http://www.w3.org/2000/svg">
<path d="M35.6029 67.4452C33.5298 69.5183 30.1631 69.5183 28.0901 67.4452L1.5548 40.9099C-0.518267 38.8369 -0.518267 35.4702 1.5548 33.3971C3.62787 31.3241 6.99453 31.3241 9.0676 33.3971L31.8548 56.1843L54.6419 33.4137C56.715 31.3406 60.0817 31.3406 62.1547 33.4137C64.2278 35.4868 64.2278 38.8534 62.1547 40.9265L35.6195 67.4618L35.6029 67.4452ZM62.1382 9.0676L35.6029 35.6029C33.5298 37.6759 30.1631 37.6759 28.0901 35.6029L1.5548 9.0676C-0.518267 6.99453 -0.518267 3.62787 1.5548 1.5548C3.62787 -0.518267 6.99453 -0.518267 9.0676 1.5548L31.8548 24.342L54.6419 1.57139C56.715 -0.501683 60.0817 -0.501683 62.1547 1.57139C64.2278 3.64445 64.2278 7.01112 62.1547 9.08418L62.1382 9.0676Z" fill="#D05338" fill-opacity="0.29"/>
</svg>
