<svg width="30" height="28" viewBox="0 0 30 28" fill="none" xmlns="http://www.w3.org/2000/svg">
<rect x="0.581238" y="0.8125" width="28.8375" height="27.0352" rx="6.30821" fill="#4084EA"/>
<path d="M7.13313 16.9101L2.97188 14.9809V14.0379L7.13313 12.1087V13.0257L3.70723 14.4964L7.13313 15.9844V16.9101ZM10.7796 17.1783C10.2432 17.1783 9.7789 17.0601 9.38671 16.8236C8.99452 16.5871 8.68884 16.2526 8.46968 15.8201C8.25051 15.3817 8.14093 14.854 8.14093 14.2369C8.14093 13.6313 8.2534 13.1093 8.47833 12.671C8.70903 12.2327 9.03201 11.8953 9.44727 11.6588C9.8683 11.4166 10.3499 11.2955 10.892 11.2955C11.4861 11.2955 11.9648 11.405 12.3281 11.6242C12.6973 11.8434 12.9914 12.1837 13.2106 12.6451L12.3541 13.0517C12.2445 12.7344 12.0628 12.498 11.8091 12.3423C11.5611 12.1808 11.2583 12.1 10.9007 12.1C10.5431 12.1 10.2288 12.1837 9.9577 12.3509C9.69239 12.5182 9.48476 12.7633 9.3348 13.0863C9.18485 13.4035 9.10987 13.787 9.10987 14.2369C9.10987 14.6925 9.1762 15.0818 9.30885 15.4048C9.4415 15.722 9.64048 15.9643 9.90579 16.1315C10.1769 16.2988 10.5085 16.3824 10.9007 16.3824C11.1141 16.3824 11.3131 16.3564 11.4976 16.3045C11.6822 16.2469 11.8437 16.1661 11.9821 16.0623C12.1205 15.9527 12.2272 15.8172 12.3022 15.6557C12.3829 15.4884 12.4233 15.2923 12.4233 15.0674V14.903H10.7623V14.1504H13.2452V17.0918H12.5531L12.5012 15.9412L12.6742 16.0277C12.5358 16.391 12.3051 16.6737 11.9821 16.8755C11.6649 17.0774 11.264 17.1783 10.7796 17.1783ZM17.0918 14.3147C17.0918 14.0264 17.0111 13.8043 16.8496 13.6486C16.6938 13.4871 16.4776 13.4064 16.2007 13.4064C15.9412 13.4064 15.7191 13.4669 15.5346 13.588C15.35 13.7092 15.2145 13.9053 15.128 14.1763L14.3494 13.8476C14.4589 13.4958 14.6723 13.2132 14.9895 12.9998C15.3125 12.7864 15.7278 12.6797 16.2353 12.6797C16.5814 12.6797 16.8871 12.7373 17.1524 12.8527C17.4177 12.9623 17.6253 13.1295 17.7753 13.3545C17.931 13.5794 18.0088 13.8678 18.0088 14.2196V16.1488C18.0088 16.3622 18.1155 16.4689 18.3289 16.4689C18.4327 16.4689 18.5337 16.4545 18.6317 16.4257L18.5798 17.0658C18.4472 17.1293 18.2799 17.161 18.078 17.161C17.8935 17.161 17.7262 17.1293 17.5763 17.0658C17.4321 16.9966 17.3167 16.8957 17.2302 16.763C17.1495 16.6246 17.1091 16.4545 17.1091 16.2526V16.1921L17.2994 16.1834C17.2475 16.4083 17.1408 16.5958 16.9793 16.7457C16.8178 16.8899 16.6304 16.9995 16.417 17.0745C16.2036 17.1437 15.9873 17.1783 15.7682 17.1783C15.4971 17.1783 15.252 17.1351 15.0328 17.0485C14.8194 16.962 14.6493 16.8323 14.5224 16.6592C14.4013 16.4804 14.3407 16.2613 14.3407 16.0017C14.3407 15.6788 14.4445 15.4135 14.6521 15.2058C14.8655 14.9982 15.1655 14.8569 15.5519 14.7819L17.2302 14.4532L17.2216 15.102L16.0017 15.3529C15.7595 15.399 15.5778 15.4654 15.4567 15.5519C15.3356 15.6384 15.275 15.7653 15.275 15.9325C15.275 16.094 15.3356 16.2238 15.4567 16.3218C15.5836 16.4141 15.7509 16.4603 15.9585 16.4603C16.1027 16.4603 16.2411 16.443 16.3737 16.4083C16.5122 16.3737 16.6362 16.319 16.7458 16.244C16.8553 16.1632 16.939 16.0623 16.9966 15.9412C17.0601 15.8143 17.0918 15.6643 17.0918 15.4913V14.3147ZM22.4583 10.8196L19.8802 17.6974H19.0151L21.5932 10.8196H22.4583ZM23.1442 12.1087L27.3055 14.0379V14.9809L23.1442 16.9101V15.9931L26.5701 14.5224L23.1442 13.0344V12.1087Z" fill="white"/>
</svg>
