<svg width="30" height="28" viewBox="0 0 30 28" fill="none" xmlns="http://www.w3.org/2000/svg">
<rect x="0.581238" width="28.8375" height="27.0352" rx="6.30821" fill="white"/>
<path d="M7.13313 16.0976L2.97188 14.1684V13.2254L7.13313 11.2962V12.2132L3.70723 13.6839L7.13313 15.1719V16.0976ZM10.7796 16.3658C10.2432 16.3658 9.7789 16.2476 9.38671 16.0111C8.99452 15.7746 8.68884 15.4401 8.46968 15.0076C8.25051 14.5692 8.14093 14.0415 8.14093 13.4244C8.14093 12.8188 8.2534 12.2968 8.47833 11.8585C8.70903 11.4202 9.03201 11.0828 9.44727 10.8463C9.8683 10.6041 10.3499 10.483 10.892 10.483C11.4861 10.483 11.9648 10.5925 12.3281 10.8117C12.6973 11.0309 12.9914 11.3712 13.2106 11.8326L12.3541 12.2392C12.2445 11.9219 12.0628 11.6855 11.8091 11.5298C11.5611 11.3683 11.2583 11.2875 10.9007 11.2875C10.5431 11.2875 10.2288 11.3712 9.9577 11.5384C9.69239 11.7057 9.48476 11.9508 9.3348 12.2738C9.18485 12.591 9.10987 12.9745 9.10987 13.4244C9.10987 13.88 9.1762 14.2693 9.30885 14.5923C9.4415 14.9095 9.64048 15.1518 9.90579 15.319C10.1769 15.4863 10.5085 15.5699 10.9007 15.5699C11.1141 15.5699 11.3131 15.5439 11.4976 15.492C11.6822 15.4344 11.8437 15.3536 11.9821 15.2498C12.1205 15.1402 12.2272 15.0047 12.3022 14.8432C12.3829 14.6759 12.4233 14.4798 12.4233 14.2549V14.0905H10.7623V13.3379H13.2452V16.2793H12.5531L12.5012 15.1287L12.6742 15.2152C12.5358 15.5785 12.3051 15.8612 11.9821 16.063C11.6649 16.2649 11.264 16.3658 10.7796 16.3658ZM17.0918 13.5022C17.0918 13.2139 17.0111 12.9918 16.8496 12.8361C16.6938 12.6746 16.4776 12.5939 16.2007 12.5939C15.9412 12.5939 15.7191 12.6544 15.5346 12.7755C15.35 12.8967 15.2145 13.0928 15.128 13.3638L14.3494 13.0351C14.4589 12.6833 14.6723 12.4007 14.9895 12.1873C15.3125 11.9739 15.7278 11.8672 16.2353 11.8672C16.5814 11.8672 16.8871 11.9248 17.1524 12.0402C17.4177 12.1498 17.6253 12.317 17.7753 12.542C17.931 12.7669 18.0088 13.0553 18.0088 13.4071V15.3363C18.0088 15.5497 18.1155 15.6564 18.3289 15.6564C18.4327 15.6564 18.5337 15.642 18.6317 15.6132L18.5798 16.2533C18.4472 16.3168 18.2799 16.3485 18.078 16.3485C17.8935 16.3485 17.7262 16.3168 17.5763 16.2533C17.4321 16.1841 17.3167 16.0832 17.2302 15.9505C17.1495 15.8121 17.1091 15.642 17.1091 15.4401V15.3796L17.2994 15.3709C17.2475 15.5958 17.1408 15.7833 16.9793 15.9332C16.8178 16.0774 16.6304 16.187 16.417 16.262C16.2036 16.3312 15.9873 16.3658 15.7682 16.3658C15.4971 16.3658 15.252 16.3226 15.0328 16.236C14.8194 16.1495 14.6493 16.0198 14.5224 15.8467C14.4013 15.6679 14.3407 15.4488 14.3407 15.1892C14.3407 14.8663 14.4445 14.601 14.6521 14.3933C14.8655 14.1857 15.1655 14.0444 15.5519 13.9694L17.2302 13.6407L17.2216 14.2895L16.0017 14.5404C15.7595 14.5865 15.5778 14.6529 15.4567 14.7394C15.3356 14.8259 15.275 14.9528 15.275 15.12C15.275 15.2815 15.3356 15.4113 15.4567 15.5093C15.5836 15.6016 15.7509 15.6478 15.9585 15.6478C16.1027 15.6478 16.2411 15.6305 16.3737 15.5958C16.5122 15.5612 16.6362 15.5065 16.7458 15.4315C16.8553 15.3507 16.939 15.2498 16.9966 15.1287C17.0601 15.0018 17.0918 14.8518 17.0918 14.6788V13.5022ZM22.4583 10.0071L19.8802 16.8849H19.0151L21.5932 10.0071H22.4583ZM23.1442 11.2962L27.3055 13.2254V14.1684L23.1442 16.0976V15.1806L26.5701 13.7099L23.1442 12.2219V11.2962Z" fill="#292929"/>
</svg>
